<svg width="28" height="34" viewBox="0 0 28 34" fill="none" xmlns="http://www.w3.org/2000/svg">
  <path
    d="M0.666626 28.6667V26.1667H4.16663V13.4167C4.16663 11.1389 4.85413 9.0764 6.22913 7.22917C7.60413 5.38195 9.41663 4.22223 11.6666 3.75001V2.54168C11.6666 1.90279 11.8958 1.37501 12.3541 0.958343C12.8125 0.541677 13.3611 0.333344 14 0.333344C14.6388 0.333344 15.1875 0.541677 15.6458 0.958343C16.1041 1.37501 16.3333 1.90279 16.3333 2.54168V3.75001C18.5833 4.22223 20.4027 5.38195 21.7916 7.22917C23.1805 9.0764 23.875 11.1389 23.875 13.4167V26.1667H27.3333V28.6667H0.666626ZM14 33.6667C13.1111 33.6667 12.3333 33.3403 11.6666 32.6875C11 32.0347 10.6666 31.25 10.6666 30.3333H17.3333C17.3333 31.25 17.0069 32.0347 16.3541 32.6875C15.7013 33.3403 14.9166 33.6667 14 33.6667Z"
    fill="#333333" />
</svg>