<svg xmlns="http://www.w3.org/2000/svg" xml:space="preserve" width="1.70666in" height="1.70666in" version="1.1"
  style="shape-rendering:geometricPrecision; text-rendering:geometricPrecision; image-rendering:optimizeQuality; fill-rule:evenodd; clip-rule:evenodd"
  viewBox="0 0 1706.66 1706.66" xmlns:xlink="http://www.w3.org/1999/xlink"
  xmlns:xodm="http://www.corel.com/coreldraw/odm/2003">
  <defs>
    <style type="text/css">
      <![CDATA[
      .fil0 {
        fill: black
      }
      ]]>
    </style>
  </defs>
  <g id="Layer_x0020_1">
    <path class="fil0"
      d="M285.08 1195.49c-8.37,0 -16.17,-5.29 -18.97,-13.65l-159.24 -475.58c-7.23,-21.62 20.23,-34.05 33.16,-20.77l14.08 -10.99c-11.35,-15.09 6.02,-40.45 26.15,-29.25l408.56 226.98 214.78 -425.35c10.2,-20.21 38,-9.74 38.1,8.52l23.28 1.13c-1.07,-18.94 27.65,-30.28 38.06,-9.65l214.79 425.35 408.57 -226.98c19.69,-10.94 36.77,13.09 26.84,28.27l15.02 10.5c13.45,-10.8 38.47,1.51 31.51,22.25l-159.24 475.57c-6.59,19.72 -35.24,17.31 -38.69,-3.06l-1097.03 0c-1.57,9.22 -9.6,16.71 -19.73,16.71zm121.46 -119.37c-95.7,0 -95.67,-145.43 0,-145.43 95.67,0 95.71,145.43 0,145.43zm0 -105.43c-43.04,0 -43.05,65.4 0,65.4 43.05,0 43.04,-65.4 0,-65.4zm893.56 105.43c-95.71,0 -95.67,-145.43 0,-145.43 95.69,0 95.72,145.43 0,145.43zm0 -105.43c-43.03,0 -43.03,65.4 0,65.4 43.05,0 43.04,-65.4 0,-65.4zm-446.78 117.97c-6.36,0 -12.36,-3.04 -16.13,-8.18l-121.58 -165.67c-5.17,-7.04 -5.17,-16.61 0,-23.65l121.58 -165.67c7.54,-10.26 24.71,-10.26 32.25,0l121.58 165.67c5.17,7.04 5.17,16.61 0,23.65l-121.58 165.67c-3.76,5.15 -9.76,8.18 -16.13,8.18zm-96.77 -185.67l96.77 131.86 96.78 -131.86 -96.78 -131.85 -96.77 131.85z" />
    <path class="fil0"
      d="M1400.47 1424.83l-1094.3 0c-55.32,0 -100.32,-45.01 -100.32,-100.33l0 -71.53c0,-55.3 45,-100.33 100.32,-100.33l1094.3 0c55.31,0 100.33,45.01 100.33,100.33l0 71.52c0,55.31 -45.01,100.33 -100.33,100.33zm-55.11 -84.34c-28.24,0 -20,-42.94 -20,-83.48 0,-26.33 40,-26.32 40,0 0,40.57 8.25,83.48 -20,83.48zm-164.01 0c-28.24,0 -20,-42.94 -20,-83.48 0,-26.33 40,-26.32 40,0 0,40.61 8.25,83.48 -20,83.48zm-164.01 0c-28.25,0 -20,-42.94 -20,-83.48 0,-26.33 40,-26.32 40,0 0,40.55 8.24,83.48 -20,83.48zm-164.02 0c-28.24,0 -20,-42.94 -20,-83.48 0,-26.33 40,-26.32 40,0 0,40.57 8.25,83.48 -20,83.48zm-164.01 0c-28.25,0 -20,-42.94 -20,-83.48 0,-26.33 40,-26.32 40,0 0,40.58 8.25,83.48 -20,83.48zm-164.01 0c-28.24,0 -20,-42.94 -20,-83.48 0,-26.33 40,-26.32 40,0 0,40.57 8.25,83.48 -20,83.48zm-164.02 0c-28.25,0 -20,-42.94 -20,-83.48 0,-26.33 40,-26.32 40,0 0,40.61 8.25,83.48 -20,83.48z" />
    <path class="fil0"
      d="M1317.28 804.24c-6.52,0 -175,71.64 -213.31,81.92l0 0c-7.74,0 -9.15,6.5 -5.53,-7.35 -19.74,-31.73 -84.8,-155.31 -88.22,-155.31 -19.4,0 -27.51,-25.16 -11.48,-36.38l144.83 -101.37c15.67,-10.97 32.09,3.46 31.54,17.91 20.99,-9.37 69.46,-7.52 78.13,9.6l81.89 161.93c6.78,13.41 -3.2,29.04 -17.84,29.04z" />
    <path class="fil0"
      d="M697.66 723.51c-3.26,0 -73.81,124.28 -100.43,166.55l5.68 24.74c-3.53,6.96 -205.02,-110.56 -212.31,-110.56 -14.64,0 -24.62,-15.6 -17.83,-29.03l81.89 -161.93c11.88,-23.47 79.34,1.56 85.29,27.34 -2.78,-43.48 2.54,-70.12 24.37,-54.87l144.83 101.37c16,11.21 7.94,36.38 -11.49,36.38z" />
    <path class="fil0"
      d="M853.32 482.47c-55.3,0 -100.31,-45 -100.31,-100.31 0,-55.31 45,-100.32 100.31,-100.32 55.32,0 100.33,45 100.33,100.32 0,55.31 -45.03,100.31 -100.33,100.31z" />
    <path class="fil0"
      d="M1606.31 724.05c-55.31,0 -100.32,-45 -100.32,-100.31 0,-55.32 45,-100.32 100.32,-100.32 55.31,0 100.33,45 100.33,100.32 0,55.31 -45.03,100.31 -100.33,100.31z" />
    <path class="fil0"
      d="M100.33 724.05c-55.31,0 -100.32,-45 -100.32,-100.31 0,-55.32 45,-100.32 100.32,-100.32 55.31,0 100.31,45 100.31,100.32 0,55.31 -45,100.31 -100.31,100.31z" />
    <path class="fil0" d="M501.04 649.11c-109.54,0 -109.54,-166.46 0,-166.46 109.55,0 109.55,166.46 0,166.46z" />
    <path class="fil0" d="M1206.83 649.11c-109.55,0 -109.55,-166.46 0,-166.46 109.56,0 109.57,166.46 0,166.46z" />
  </g>
</svg>