<svg width="43" height="43" viewBox="0 0 43 43" fill="none" xmlns="http://www.w3.org/2000/svg">
  <rect x="0.196777" y="0.859863" width="42" height="42" rx="21" fill="none" />
  <path
    d="M19.9559 31.4054C14.8013 31.4054 10.6968 27.1099 10.6968 21.8599C10.6968 16.6099 14.8013 12.3145 19.9559 12.3145C21.5786 12.3145 23.2013 12.7917 24.5377 13.5554C25.015 13.8417 25.1104 14.4145 24.824 14.8917C24.5377 15.369 23.965 15.4645 23.4877 15.1781C22.4377 14.6054 21.1968 14.2235 19.9559 14.2235C15.8513 14.2235 12.6059 17.6599 12.6059 21.8599C12.6059 26.0599 15.8513 29.4963 19.9559 29.4963C21.1968 29.4963 22.5331 29.1145 23.5831 28.4463C24.0604 28.1599 24.6331 28.3508 24.9195 28.7326C25.2059 29.2099 25.015 29.7826 24.6331 30.069C23.1059 30.9281 21.5786 31.4054 19.9559 31.4054ZM26.924 26.6326C26.6377 26.6326 26.4468 26.5372 26.2559 26.3463C25.874 25.9645 25.874 25.3917 26.2559 25.0099L28.4513 22.8145H18.3331C17.7604 22.8145 17.3786 22.4326 17.3786 21.8599C17.3786 21.2872 17.7604 20.9054 18.3331 20.9054H28.4513L26.2559 18.7099C25.874 18.3281 25.874 17.7554 26.2559 17.3735C26.6377 16.9917 27.2104 16.9917 27.5922 17.3735L31.4104 21.1917C31.5059 21.2872 31.6013 21.3826 31.6013 21.4781C31.6013 21.5735 31.6968 21.669 31.6968 21.8599C31.6968 21.9554 31.6968 22.1463 31.6013 22.2417C31.6013 22.3372 31.5059 22.4326 31.4104 22.5281L27.5922 26.3463C27.4013 26.5372 27.2104 26.6326 26.924 26.6326Z"
    fill="white" />
</svg>