<svg xmlns="http://www.w3.org/2000/svg" viewBox="0 0 512 512">
  <g>
    <path d="M182.76,12.29c5.44,1.27,11,2.29,16.32,3.85,12.58,3.65,25.24,4.71,37.88.9,5.77-1.74,11.22-4.54,16.75-7a43.43,43.43,0,0,0,5.8-3.41c14.68-9.54,29.69-7.76,44.72-1.14,7.82,3.44,12.43,10.17,16.67,17.27,3.77,6.32,7.45,12.81,12.09,18.47,6.54,8,15.44,12.91,25.17,16.2,4.78,1.62,9.61,3.09,14.46,4.5,22.17,6.48,33.23,24.31,29.39,47.22-1.45,8.65-3.1,17.33-3.73,26.06-1.09,15.09,2.07,29.25,11.7,41.41,9.51,12,9.07,25.1,4.75,38.83-3.56,11.34-10.22,19.81-21.13,24.81-10.28,4.72-19.25,11.07-25.73,20.6-5,7.34-7.82,15.47-9.47,24.1-1.43,7.5-3.23,14.9-8.74,20.62-8.88,9.22-19.16,16.14-32.13,18.06-5.22.77-10.21-.69-15.06-2.56-7.64-2.94-15.42-5.23-23.73-4.84-12.66.59-24.35,3.86-34.06,12.5-.56.5-1.19.92-1.72,1.44-6.33,6.17-13.92,8.52-22.62,7.42a95.09,95.09,0,0,1-32.54-10,27.82,27.82,0,0,1-13.63-16.08,55.91,55.91,0,0,0-16.93-24.37,51.06,51.06,0,0,0-24.73-11.87c-3.68-.64-7.39-1.25-11-2.2-8.24-2.16-14-7.57-18.54-14.53C98,251,93.9,243.1,93.19,233.83c-.49-6.33,1.37-12.23,3.29-18.09,3.89-11.91,4.92-23.93,2.07-36.21-1.88-8.09-5.85-15.22-10.67-21.79C75.59,141,82,121,89.12,109.14c2.61-4.32,7.15-6.4,11.41-8.8,5.68-3.2,11.82-6,16.58-10.34,13.94-12.61,24.17-27.81,28-46.55,3.57-17.34,15.77-25.4,31.34-30a35.09,35.09,0,0,1,6.11-.72ZM372.84,167.8c0-68-55.57-123.58-123.78-123.39-67.62.18-124,54.25-123.44,124.81.51,67.93,56,124.78,128.38,122.31C319.64,289.29,372.73,235.59,372.84,167.8Z"/><path d="M335.84,512,277.48,377.7c41.63-4.42,78.39-19.63,111.09-45.82L444.4,461.69l-.5.45-81.6-38.43Z"/><path d="M123.77,337.66c32.31,26,69.23,39,110.11,42.95l-57,130.58-.73,0-26-87.57L67.6,462.66Z"/><path d="M249.23,60.41c59.07-.1,107.71,48.41,107.6,107.55-.11,60.22-48.49,105.52-103,107.54a107.6,107.6,0,1,1-4.6-215.09Zm-43.92,93.07L184.67,174l49.57,49.46L326,132.18l-20.59-20.83L234,182.82Z"/>
  </g>
</svg>
