<svg width="24" height="24" viewBox="0 0 24 24" xmlns="http://www.w3.org/2000/svg">
  <path
    d="M14.3996 4.7999H17.9996C18.7196 4.7999 19.1996 5.2799 19.1996 5.9999V7.1999H3.59961V5.9999C3.59961 5.2799 4.19961 4.7999 4.79961 4.7999H8.39961C8.63961 3.4799 9.95961 2.3999 11.3996 2.3999C12.8396 2.3999 14.1596 3.4799 14.3996 4.7999ZM9.59961 4.7999H13.1996C12.9596 4.0799 12.1196 3.5999 11.3996 3.5999C10.6796 3.5999 9.83961 4.0799 9.59961 4.7999ZM4.79961 8.3999H17.9996L16.9196 20.5199C16.9196 21.1199 16.3196 21.5999 15.7196 21.5999H7.07961C6.47961 21.5999 5.99961 21.1199 5.87961 20.5199L4.79961 8.3999Z" />
</svg>