<svg width="40" height="40" viewBox="0 0 40 40" fill="none" xmlns="http://www.w3.org/2000/svg">
  <path
    d="M9.25004 29.375C11 28.2639 12.7292 27.4236 14.4375 26.8542C16.1459 26.2847 18 26 20 26C22 26 23.8612 26.2847 25.5834 26.8542C27.3056 27.4236 29.0417 28.2639 30.7917 29.375C32.0139 27.875 32.882 26.3611 33.3959 24.8333C33.9098 23.3056 34.1667 21.6944 34.1667 20C34.1667 15.9722 32.8125 12.6042 30.1042 9.89584C27.3959 7.18751 24.0278 5.83334 20 5.83334C15.9723 5.83334 12.6042 7.18751 9.89587 9.89584C7.18754 12.6042 5.83337 15.9722 5.83337 20C5.83337 21.6944 6.09726 23.3056 6.62504 24.8333C7.15282 26.3611 8.02782 27.875 9.25004 29.375ZM20 21.25C18.3889 21.25 17.0348 20.7014 15.9375 19.6042C14.8403 18.5069 14.2917 17.1528 14.2917 15.5417C14.2917 13.9306 14.8403 12.5764 15.9375 11.4792C17.0348 10.382 18.3889 9.83334 20 9.83334C21.6112 9.83334 22.9653 10.382 24.0625 11.4792C25.1598 12.5764 25.7084 13.9306 25.7084 15.5417C25.7084 17.1528 25.1598 18.5069 24.0625 19.6042C22.9653 20.7014 21.6112 21.25 20 21.25ZM20 36.6667C17.6667 36.6667 15.4862 36.2292 13.4584 35.3542C11.4306 34.4792 9.66671 33.2847 8.16671 31.7708C6.66671 30.2569 5.48615 28.4861 4.62504 26.4583C3.76393 24.4306 3.33337 22.2639 3.33337 19.9583C3.33337 17.6806 3.77087 15.5278 4.64587 13.5C5.52087 11.4722 6.71532 9.70834 8.22921 8.20834C9.7431 6.70834 11.5139 5.52084 13.5417 4.64584C15.5695 3.77084 17.7362 3.33334 20.0417 3.33334C22.3195 3.33334 24.4723 3.77084 26.5 4.64584C28.5278 5.52084 30.2917 6.70834 31.7917 8.20834C33.2917 9.70834 34.4792 11.4722 35.3542 13.5C36.2292 15.5278 36.6667 17.6944 36.6667 20C36.6667 22.2778 36.2292 24.4306 35.3542 26.4583C34.4792 28.4861 33.2917 30.2569 31.7917 31.7708C30.2917 33.2847 28.5278 34.4792 26.5 35.3542C24.4723 36.2292 22.3056 36.6667 20 36.6667Z"
    fill="#333333" />
</svg>